<?xml version="1.0" encoding="UTF-8"?>
<svg xmlns="http://www.w3.org/2000/svg" xmlns:xlink="http://www.w3.org/1999/xlink" version="1.1" viewBox="-256 -384 1792 1792" width="1024" height="1024">
<rect x="-512" y="-512" width="2048" height="2048" fill="#dfdfdf"></rect>
<path fill="#5546a3" d="M0 512v256c0 35.4 28.6 64 64 64h64V448H64c-35.4 0-64 28.6-64 64zM928 192H704V64c0-35.4-28.6-64-64-64s-64 28.6-64 64v128H352c-88.4 0-160 71.6-160 160v544c0 70.6 57.4 128 128 128h640c70.6 0 128-57.4 128-128V352c0-88.4-71.6-160-160-160zM512 832h-128v-64h128v64z m-64-240c-44.2 0-80-35.8-80-80s35.8-80 80-80 80 35.8 80 80-35.8 80-80 80z m256 240h-128v-64h128v64z m192 0h-128v-64h128v64z m-64-240c-44.2 0-80-35.8-80-80s35.8-80 80-80 80 35.8 80 80-35.8 80-80 80z m384-144h-64v384h64c35.4 0 64-28.6 64-64V512c0-35.4-28.6-64-64-64z"></path>
</svg>