<?xml version="1.0" encoding="UTF-8"?>
<svg xmlns="http://www.w3.org/2000/svg" xmlns:xlink="http://www.w3.org/1999/xlink" version="1.1" width="48px" height="48px" viewBox="0 -4 32 28">
<rect x="0" y="-8" width="32" height="32" fill="#dfdfdf"></rect>
<path fill="#5546a3" d="M25.061 23.797c-4.2-1.532-5.54-2.824-5.54-5.582 0-1.652 1.28-1.118 1.846-4.152 0.23-1.258 1.36-0.024 1.582-2.898 0-1.14-0.619-1.43-0.619-1.43s0.313-1.7 0.436-3.004c0.15-1.628-0.94-5.828-6.764-5.828-5.828 0-6.922 4.2-6.767 5.828 0.126 1.304 0.442 3.004 0.442 3.004s-0.626 0.286-0.626 1.43c0.22 2.876 1.352 1.64 1.584 2.898 0.564 3.035 1.845 2.5 1.845 4.152 0 2.758-1.338 4.049-5.54 5.582-4.208 1.532-6.942 3.094-6.942 4.16v3.586h32v-3.586c0.004-1.062-2.732-2.628-6.939-4.16v0zM25.061 23.797v0z"></path>
</svg>